<?xml version="1.0" encoding="UTF-8" standalone="no"?>
<!DOCTYPE svg PUBLIC "-//W3C//DTD SVG 1.1//EN"
 "http://www.w3.org/Graphics/SVG/1.1/DTD/svg11.dtd">
<!-- Generated by graphviz version 2.47.0 (20210316.0004)
 -->
<!-- Title: dependencies Pages: 1 -->
<svg width="1102pt" height="284pt"
 viewBox="0.00 0.00 1102.00 284.00" xmlns="http://www.w3.org/2000/svg" xmlns:xlink="http://www.w3.org/1999/xlink">
<g id="graph0" class="graph" transform="scale(1 1) rotate(0) translate(4 280)">
<title>dependencies</title>
<polygon fill="white" stroke="transparent" points="-4,4 -4,-280 1098,-280 1098,4 -4,4"/>
<text text-anchor="start" x="526.01" y="-42.4" font-family="sans-serif" font-weight="bold" font-size="14.00">Legend</text>
<polygon fill="#ffffb3" stroke="transparent" points="313,-10 313,-30 333,-30 333,-10 313,-10"/>
<text text-anchor="start" x="336.63" y="-15.4" font-family="sans-serif" font-size="14.00"> &#160;Declarations</text>
<polygon fill="#8dd3c7" stroke="transparent" points="426,-10 426,-30 446,-30 446,-10 426,-10"/>
<text text-anchor="start" x="449.73" y="-15.4" font-family="sans-serif" font-size="14.00"> &#160;Module</text>
<polygon fill="#80b1d3" stroke="transparent" points="512,-10 512,-30 532,-30 532,-10 512,-10"/>
<text text-anchor="start" x="535.78" y="-15.4" font-family="sans-serif" font-size="14.00"> &#160;Bootstrap</text>
<polygon fill="#fdb462" stroke="transparent" points="609,-10 609,-30 629,-30 629,-10 609,-10"/>
<text text-anchor="start" x="632.67" y="-15.4" font-family="sans-serif" font-size="14.00"> &#160;Providers</text>
<polygon fill="#fb8072" stroke="transparent" points="705,-10 705,-30 725,-30 725,-10 705,-10"/>
<text text-anchor="start" x="728.73" y="-15.4" font-family="sans-serif" font-size="14.00"> &#160;Exports</text>
<g id="clust1" class="cluster">
<title>cluster_AppModule</title>
<polygon fill="none" stroke="black" stroke-dasharray="1,5" points="8,-70 8,-268 1086,-268 1086,-70 8,-70"/>
</g>
<g id="clust9" class="cluster">
<title>cluster_AppModule_imports</title>
<polygon fill="none" stroke="black" points="934,-78 934,-130 1078,-130 1078,-78 934,-78"/>
</g>
<g id="clust11" class="cluster">
<title>cluster_AppModule_bootstrap</title>
<polygon fill="none" stroke="black" points="499,-208 499,-260 623,-260 623,-208 499,-208"/>
</g>
<g id="clust2" class="cluster">
<title>cluster_AppModule_declarations</title>
<polygon fill="none" stroke="black" points="16,-78 16,-130 926,-130 926,-78 16,-78"/>
</g>
<!-- AppComponent -->
<g id="node1" class="node">
<title>AppComponent</title>
<polygon fill="#ffffb3" stroke="black" points="917.94,-122 812.06,-122 812.06,-86 917.94,-86 917.94,-122"/>
<text text-anchor="middle" x="865" y="-99.8" font-family="Times,serif" font-size="14.00">AppComponent</text>
</g>
<!-- AppModule -->
<g id="node7" class="node">
<title>AppModule</title>
<polygon fill="#8dd3c7" stroke="black" points="602.66,-187 599.66,-191 578.66,-191 575.66,-187 519.34,-187 519.34,-151 602.66,-151 602.66,-187"/>
<text text-anchor="middle" x="561" y="-164.8" font-family="Times,serif" font-size="14.00">AppModule</text>
</g>
<!-- AppComponent&#45;&gt;AppModule -->
<g id="edge1" class="edge">
<title>AppComponent&#45;&gt;AppModule</title>
<path fill="none" stroke="black" d="M865,-122.11C865,-141.34 865,-169 865,-169 865,-169 612.95,-169 612.95,-169"/>
<polygon fill="black" stroke="black" points="612.95,-165.5 602.95,-169 612.95,-172.5 612.95,-165.5"/>
</g>
<!-- FolderSelectorDirective -->
<g id="node2" class="node">
<title>FolderSelectorDirective</title>
<polygon fill="#ffffb3" stroke="black" points="794.5,-122 643.5,-122 643.5,-86 794.5,-86 794.5,-122"/>
<text text-anchor="middle" x="719" y="-99.8" font-family="Times,serif" font-size="14.00">FolderSelectorDirective</text>
</g>
<!-- FolderSelectorDirective&#45;&gt;AppModule -->
<g id="edge2" class="edge">
<title>FolderSelectorDirective&#45;&gt;AppModule</title>
<path fill="none" stroke="black" d="M719,-122.03C719,-138.4 719,-160 719,-160 719,-160 612.93,-160 612.93,-160"/>
<polygon fill="black" stroke="black" points="612.93,-156.5 602.93,-160 612.93,-163.5 612.93,-156.5"/>
</g>
<!-- MailListComponent -->
<g id="node3" class="node">
<title>MailListComponent</title>
<polygon fill="#ffffb3" stroke="black" points="625.55,-122 496.45,-122 496.45,-86 625.55,-86 625.55,-122"/>
<text text-anchor="middle" x="561" y="-99.8" font-family="Times,serif" font-size="14.00">MailListComponent</text>
</g>
<!-- MailListComponent&#45;&gt;AppModule -->
<g id="edge3" class="edge">
<title>MailListComponent&#45;&gt;AppModule</title>
<path fill="none" stroke="black" d="M561,-122.11C561,-122.11 561,-140.99 561,-140.99"/>
<polygon fill="black" stroke="black" points="557.5,-140.99 561,-150.99 564.5,-140.99 557.5,-140.99"/>
</g>
<!-- MailPreviewComponent -->
<g id="node4" class="node">
<title>MailPreviewComponent</title>
<polygon fill="#ffffb3" stroke="black" points="477.64,-122 324.36,-122 324.36,-86 477.64,-86 477.64,-122"/>
<text text-anchor="middle" x="401" y="-99.8" font-family="Times,serif" font-size="14.00">MailPreviewComponent</text>
</g>
<!-- MailPreviewComponent&#45;&gt;AppModule -->
<g id="edge4" class="edge">
<title>MailPreviewComponent&#45;&gt;AppModule</title>
<path fill="none" stroke="black" d="M401,-122.03C401,-138.4 401,-160 401,-160 401,-160 508.96,-160 508.96,-160"/>
<polygon fill="black" stroke="black" points="508.96,-163.5 518.96,-160 508.96,-156.5 508.96,-163.5"/>
</g>
<!-- MailSelectorDirective -->
<g id="node5" class="node">
<title>MailSelectorDirective</title>
<polygon fill="#ffffb3" stroke="black" points="306.39,-122 165.61,-122 165.61,-86 306.39,-86 306.39,-122"/>
<text text-anchor="middle" x="236" y="-99.8" font-family="Times,serif" font-size="14.00">MailSelectorDirective</text>
</g>
<!-- MailSelectorDirective&#45;&gt;AppModule -->
<g id="edge5" class="edge">
<title>MailSelectorDirective&#45;&gt;AppModule</title>
<path fill="none" stroke="black" d="M236,-122.11C236,-141.34 236,-169 236,-169 236,-169 509.18,-169 509.18,-169"/>
<polygon fill="black" stroke="black" points="509.18,-172.5 519.18,-169 509.18,-165.5 509.18,-172.5"/>
</g>
<!-- SidebarComponent -->
<g id="node6" class="node">
<title>SidebarComponent</title>
<polygon fill="#ffffb3" stroke="black" points="148.1,-122 23.9,-122 23.9,-86 148.1,-86 148.1,-122"/>
<text text-anchor="middle" x="86" y="-99.8" font-family="Times,serif" font-size="14.00">SidebarComponent</text>
</g>
<!-- SidebarComponent&#45;&gt;AppModule -->
<g id="edge6" class="edge">
<title>SidebarComponent&#45;&gt;AppModule</title>
<path fill="none" stroke="black" d="M86,-122.29C86,-144.21 86,-178 86,-178 86,-178 509.26,-178 509.26,-178"/>
<polygon fill="black" stroke="black" points="509.26,-181.5 519.26,-178 509.26,-174.5 509.26,-181.5"/>
</g>
<!-- AppComponent  -->
<g id="node9" class="node">
<title>AppComponent </title>
<polygon fill="#80b1d3" stroke="black" points="615.44,-252 506.56,-252 506.56,-216 615.44,-216 615.44,-252"/>
<text text-anchor="middle" x="561" y="-229.8" font-family="Times,serif" font-size="14.00">AppComponent </text>
</g>
<!-- AppModule&#45;&gt;AppComponent  -->
<g id="edge8" class="edge">
<title>AppModule&#45;&gt;AppComponent </title>
<path fill="none" stroke="black" stroke-dasharray="1,5" d="M561,-187.11C561,-187.11 561,-205.99 561,-205.99"/>
<polygon fill="black" stroke="black" points="557.5,-205.99 561,-215.99 564.5,-205.99 557.5,-205.99"/>
</g>
<!-- AppRoutingModule -->
<g id="node8" class="node">
<title>AppRoutingModule</title>
<polygon fill="#8dd3c7" stroke="black" points="1070.27,-122 1067.27,-126 1046.27,-126 1043.27,-122 941.73,-122 941.73,-86 1070.27,-86 1070.27,-122"/>
<text text-anchor="middle" x="1006" y="-99.8" font-family="Times,serif" font-size="14.00">AppRoutingModule</text>
</g>
<!-- AppRoutingModule&#45;&gt;AppModule -->
<g id="edge7" class="edge">
<title>AppRoutingModule&#45;&gt;AppModule</title>
<path fill="none" stroke="black" d="M1006,-122.29C1006,-144.21 1006,-178 1006,-178 1006,-178 612.86,-178 612.86,-178"/>
<polygon fill="black" stroke="black" points="612.86,-174.5 602.86,-178 612.86,-181.5 612.86,-174.5"/>
</g>
</g>
</svg>
