<?xml version="1.0" encoding="UTF-8" standalone="no"?>
<!DOCTYPE svg PUBLIC "-//W3C//DTD SVG 1.1//EN"
 "http://www.w3.org/Graphics/SVG/1.1/DTD/svg11.dtd">
<!-- Generated by graphviz version 2.47.0 (20210316.0004)
 -->
<!-- Title: dependencies Pages: 1 -->
<svg width="1102pt" height="284pt"
 viewBox="0.00 0.00 1102.00 284.00" xmlns="http://www.w3.org/2000/svg" xmlns:xlink="http://www.w3.org/1999/xlink">
<g id="graph0" class="graph" transform="scale(1 1) rotate(0) translate(4 280)">
<title>dependencies</title>
<polygon fill="white" stroke="transparent" points="-4,4 -4,-280 1098,-280 1098,4 -4,4"/>
<text text-anchor="start" x="526.01" y="-42.4" font-family="sans-serif" font-weight="bold" font-size="14.00">Legend</text>
<polygon fill="#ffffb3" stroke="transparent" points="313,-10 313,-30 333,-30 333,-10 313,-10"/>
<text text-anchor="start" x="336.63" y="-15.4" font-family="sans-serif" font-size="14.00"> &#160;Declarations</text>
<polygon fill="#8dd3c7" stroke="transparent" points="426,-10 426,-30 446,-30 446,-10 426,-10"/>
<text text-anchor="start" x="449.73" y="-15.4" font-family="sans-serif" font-size="14.00"> &#160;Module</text>
<polygon fill="#80b1d3" stroke="transparent" points="512,-10 512,-30 532,-30 532,-10 512,-10"/>
<text text-anchor="start" x="535.78" y="-15.4" font-family="sans-serif" font-size="14.00"> &#160;Bootstrap</text>
<polygon fill="#fdb462" stroke="transparent" points="609,-10 609,-30 629,-30 629,-10 609,-10"/>
<text text-anchor="start" x="632.67" y="-15.4" font-family="sans-serif" font-size="14.00"> &#160;Providers</text>
<polygon fill="#fb8072" stroke="transparent" points="705,-10 705,-30 725,-30 725,-10 705,-10"/>
<text text-anchor="start" x="728.73" y="-15.4" font-family="sans-serif" font-size="14.00"> &#160;Exports</text>
<g id="clust1" class="cluster">
<title>cluster_AppModule</title>
<polygon fill="none" stroke="black" stroke-dasharray="1,5" points="8,-70 8,-268 1086,-268 1086,-70 8,-70"/>
</g>
<g id="clust2" class="cluster">
<title>cluster_AppModule_declarations</title>
<polygon fill="none" stroke="black" points="168,-78 168,-130 1078,-130 1078,-78 168,-78"/>
</g>
<g id="clust9" class="cluster">
<title>cluster_AppModule_imports</title>
<polygon fill="none" stroke="black" points="16,-78 16,-130 160,-130 160,-78 16,-78"/>
</g>
<g id="clust11" class="cluster">
<title>cluster_AppModule_bootstrap</title>
<polygon fill="none" stroke="black" points="491,-208 491,-260 615,-260 615,-208 491,-208"/>
</g>
<!-- AppComponent -->
<g id="node1" class="node">
<title>AppComponent</title>
<polygon fill="#ffffb3" stroke="black" points="1069.94,-122 964.06,-122 964.06,-86 1069.94,-86 1069.94,-122"/>
<text text-anchor="middle" x="1017" y="-99.8" font-family="Times,serif" font-size="14.00">AppComponent</text>
</g>
<!-- AppModule -->
<g id="node7" class="node">
<title>AppModule</title>
<polygon fill="#8dd3c7" stroke="black" points="594.66,-187 591.66,-191 570.66,-191 567.66,-187 511.34,-187 511.34,-151 594.66,-151 594.66,-187"/>
<text text-anchor="middle" x="553" y="-164.8" font-family="Times,serif" font-size="14.00">AppModule</text>
</g>
<!-- AppComponent&#45;&gt;AppModule -->
<g id="edge1" class="edge">
<title>AppComponent&#45;&gt;AppModule</title>
<path fill="none" stroke="black" d="M1017,-122.29C1017,-144.21 1017,-178 1017,-178 1017,-178 605,-178 605,-178"/>
<polygon fill="black" stroke="black" points="605,-174.5 595,-178 605,-181.5 605,-174.5"/>
</g>
<!-- FolderSelectorDirective -->
<g id="node2" class="node">
<title>FolderSelectorDirective</title>
<polygon fill="#ffffb3" stroke="black" points="946.5,-122 795.5,-122 795.5,-86 946.5,-86 946.5,-122"/>
<text text-anchor="middle" x="871" y="-99.8" font-family="Times,serif" font-size="14.00">FolderSelectorDirective</text>
</g>
<!-- FolderSelectorDirective&#45;&gt;AppModule -->
<g id="edge2" class="edge">
<title>FolderSelectorDirective&#45;&gt;AppModule</title>
<path fill="none" stroke="black" d="M871,-122.11C871,-141.34 871,-169 871,-169 871,-169 604.9,-169 604.9,-169"/>
<polygon fill="black" stroke="black" points="604.9,-165.5 594.9,-169 604.9,-172.5 604.9,-165.5"/>
</g>
<!-- MailListComponent -->
<g id="node3" class="node">
<title>MailListComponent</title>
<polygon fill="#ffffb3" stroke="black" points="777.55,-122 648.45,-122 648.45,-86 777.55,-86 777.55,-122"/>
<text text-anchor="middle" x="713" y="-99.8" font-family="Times,serif" font-size="14.00">MailListComponent</text>
</g>
<!-- MailListComponent&#45;&gt;AppModule -->
<g id="edge3" class="edge">
<title>MailListComponent&#45;&gt;AppModule</title>
<path fill="none" stroke="black" d="M713,-122.03C713,-138.4 713,-160 713,-160 713,-160 605.04,-160 605.04,-160"/>
<polygon fill="black" stroke="black" points="605.04,-156.5 595.04,-160 605.04,-163.5 605.04,-156.5"/>
</g>
<!-- MailPreviewComponent -->
<g id="node4" class="node">
<title>MailPreviewComponent</title>
<polygon fill="#ffffb3" stroke="black" points="629.64,-122 476.36,-122 476.36,-86 629.64,-86 629.64,-122"/>
<text text-anchor="middle" x="553" y="-99.8" font-family="Times,serif" font-size="14.00">MailPreviewComponent</text>
</g>
<!-- MailPreviewComponent&#45;&gt;AppModule -->
<g id="edge4" class="edge">
<title>MailPreviewComponent&#45;&gt;AppModule</title>
<path fill="none" stroke="black" d="M553,-122.11C553,-122.11 553,-140.99 553,-140.99"/>
<polygon fill="black" stroke="black" points="549.5,-140.99 553,-150.99 556.5,-140.99 549.5,-140.99"/>
</g>
<!-- MailSelectorDirective -->
<g id="node5" class="node">
<title>MailSelectorDirective</title>
<polygon fill="#ffffb3" stroke="black" points="458.39,-122 317.61,-122 317.61,-86 458.39,-86 458.39,-122"/>
<text text-anchor="middle" x="388" y="-99.8" font-family="Times,serif" font-size="14.00">MailSelectorDirective</text>
</g>
<!-- MailSelectorDirective&#45;&gt;AppModule -->
<g id="edge5" class="edge">
<title>MailSelectorDirective&#45;&gt;AppModule</title>
<path fill="none" stroke="black" d="M388,-122.03C388,-138.4 388,-160 388,-160 388,-160 500.94,-160 500.94,-160"/>
<polygon fill="black" stroke="black" points="500.94,-163.5 510.94,-160 500.94,-156.5 500.94,-163.5"/>
</g>
<!-- SidebarComponent -->
<g id="node6" class="node">
<title>SidebarComponent</title>
<polygon fill="#ffffb3" stroke="black" points="300.1,-122 175.9,-122 175.9,-86 300.1,-86 300.1,-122"/>
<text text-anchor="middle" x="238" y="-99.8" font-family="Times,serif" font-size="14.00">SidebarComponent</text>
</g>
<!-- SidebarComponent&#45;&gt;AppModule -->
<g id="edge6" class="edge">
<title>SidebarComponent&#45;&gt;AppModule</title>
<path fill="none" stroke="black" d="M238,-122.11C238,-141.34 238,-169 238,-169 238,-169 501.17,-169 501.17,-169"/>
<polygon fill="black" stroke="black" points="501.17,-172.5 511.17,-169 501.17,-165.5 501.17,-172.5"/>
</g>
<!-- AppComponent  -->
<g id="node9" class="node">
<title>AppComponent </title>
<polygon fill="#80b1d3" stroke="black" points="607.44,-252 498.56,-252 498.56,-216 607.44,-216 607.44,-252"/>
<text text-anchor="middle" x="553" y="-229.8" font-family="Times,serif" font-size="14.00">AppComponent </text>
</g>
<!-- AppModule&#45;&gt;AppComponent  -->
<g id="edge8" class="edge">
<title>AppModule&#45;&gt;AppComponent </title>
<path fill="none" stroke="black" stroke-dasharray="1,5" d="M553,-187.11C553,-187.11 553,-205.99 553,-205.99"/>
<polygon fill="black" stroke="black" points="549.5,-205.99 553,-215.99 556.5,-205.99 549.5,-205.99"/>
</g>
<!-- AppRoutingModule -->
<g id="node8" class="node">
<title>AppRoutingModule</title>
<polygon fill="#8dd3c7" stroke="black" points="152.27,-122 149.27,-126 128.27,-126 125.27,-122 23.73,-122 23.73,-86 152.27,-86 152.27,-122"/>
<text text-anchor="middle" x="88" y="-99.8" font-family="Times,serif" font-size="14.00">AppRoutingModule</text>
</g>
<!-- AppRoutingModule&#45;&gt;AppModule -->
<g id="edge7" class="edge">
<title>AppRoutingModule&#45;&gt;AppModule</title>
<path fill="none" stroke="black" d="M88,-122.29C88,-144.21 88,-178 88,-178 88,-178 501.33,-178 501.33,-178"/>
<polygon fill="black" stroke="black" points="501.33,-181.5 511.33,-178 501.33,-174.5 501.33,-181.5"/>
</g>
</g>
</svg>
